<svg width="24" height="14" viewBox="0 0 24 14" fill="none" xmlns="http://www.w3.org/2000/svg">
<path d="M0.88029 9.09002L4.75029 13C4.84325 13.0938 4.95385 13.1681 5.07571 13.2189C5.19757 13.2697 5.32828 13.2958 5.46029 13.2958C5.5923 13.2958 5.72301 13.2697 5.84487 13.2189C5.96673 13.1681 6.07733 13.0938 6.17029 13C6.26402 12.9071 6.33841 12.7965 6.38918 12.6746C6.43995 12.5527 6.46609 12.422 6.46609 12.29C6.46609 12.158 6.43995 12.0273 6.38918 11.9054C6.33841 11.7836 6.26402 11.673 6.17029 11.58L2.61029 8.00002H23.0003C23.2655 8.00002 23.5199 7.89466 23.7074 7.70713C23.8949 7.51959 24.0003 7.26524 24.0003 7.00002C24.0003 6.73481 23.8949 6.48045 23.7074 6.29292C23.5199 6.10538 23.2655 6.00002 23.0003 6.00002H2.55029L6.17029 2.38002C6.34758 2.19405 6.44648 1.94696 6.44648 1.69002C6.44648 1.43308 6.34758 1.186 6.17029 1.00002C6.07733 0.906294 5.96673 0.831899 5.84487 0.78113C5.72301 0.730362 5.5923 0.704224 5.46029 0.704224C5.32828 0.704224 5.19757 0.730362 5.07571 0.78113C4.95385 0.831899 4.84325 0.906294 4.75029 1.00002L0.88029 4.85002C0.318488 5.41252 0.00292969 6.17502 0.00292969 6.97002C0.00292969 7.76502 0.318488 8.52752 0.88029 9.09002Z" fill="#374957"/>
</svg>
